solid ASCII
  facet normal -9.591916e-01 1.175970e-01 2.571427e-01
    outer loop
      vertex   -5.575407e+00 2.972320e+00 8.458718e+00
      vertex   -5.513991e+00 2.884609e+00 8.727922e+00
      vertex   -5.568901e+00 3.025388e+00 8.458718e+00
    endloop
  endfacet
  facet normal -9.584925e-01 1.203831e-01 2.584572e-01
    outer loop
      vertex   -5.568901e+00 3.025388e+00 8.458718e+00
      vertex   -5.513991e+00 2.884609e+00 8.727922e+00
      vertex   -5.373753e+00 3.569709e+00 8.928894e+00
    endloop
  endfacet
  facet normal -9.586304e-01 1.205899e-01 2.578485e-01
    outer loop
      vertex   -5.373753e+00 3.569709e+00 8.928894e+00
      vertex   -5.513991e+00 2.884609e+00 8.727922e+00
      vertex   -5.452173e+00 2.796324e+00 8.999037e+00
    endloop
  endfacet
  facet normal -9.564692e-01 1.210679e-01 2.655357e-01
    outer loop
      vertex   -5.373753e+00 3.569709e+00 8.928894e+00
      vertex   -5.452173e+00 2.796324e+00 8.999037e+00
      vertex   -5.284309e+00 3.442131e+00 9.309242e+00
    endloop
  endfacet
  facet normal -9.572367e-01 1.230447e-01 2.618357e-01
    outer loop
      vertex   -5.284309e+00 3.442131e+00 9.309242e+00
      vertex   -5.452173e+00 2.796324e+00 8.999037e+00
      vertex   -5.236106e+00 2.930578e+00 9.725861e+00
    endloop
  endfacet
  facet normal -9.549987e-01 1.279462e-01 2.675952e-01
    outer loop
      vertex   -5.284309e+00 3.442131e+00 9.309242e+00
      vertex   -5.236106e+00 2.930578e+00 9.725861e+00
      vertex   -5.194169e+00 3.313497e+00 9.692440e+00
    endloop
  endfacet
  facet normal -9.549718e-01 1.279514e-01 2.676887e-01
    outer loop
      vertex   -5.194169e+00 3.313497e+00 9.692440e+00
      vertex   -5.236106e+00 2.930578e+00 9.725861e+00
      vertex   -5.103526e+00 3.184075e+00 1.007767e+01
    endloop
  endfacet
  facet normal -9.552206e-01 1.322046e-01 2.647178e-01
    outer loop
      vertex   -5.103526e+00 3.184075e+00 1.007767e+01
      vertex   -5.236106e+00 2.930578e+00 9.725861e+00
      vertex   -5.108472e+00 2.748287e+00 1.027746e+01
    endloop
  endfacet
  facet normal -9.535340e-01 1.344370e-01 2.696288e-01
    outer loop
      vertex   -5.103526e+00 3.184075e+00 1.007767e+01
      vertex   -5.108472e+00 2.748287e+00 1.027746e+01
      vertex   -5.012577e+00 3.054131e+00 1.046410e+01
    endloop
  endfacet
  facet normal -9.535196e-01 1.343859e-01 2.697051e-01
    outer loop
      vertex   -5.012577e+00 3.054131e+00 1.046410e+01
      vertex   -5.108472e+00 2.748287e+00 1.027746e+01
      vertex   -4.921516e+00 2.923931e+00 1.085091e+01
    endloop
  endfacet
  facet normal -9.530656e-01 1.427666e-01 2.669901e-01
    outer loop
      vertex   -4.921516e+00 2.923931e+00 1.085091e+01
      vertex   -5.108472e+00 2.748287e+00 1.027746e+01
      vertex   -4.905550e+00 2.349754e+00 1.121493e+01
    endloop
  endfacet
  facet normal -9.506478e-01 1.468477e-01 2.733213e-01
    outer loop
      vertex   -4.921516e+00 2.923931e+00 1.085091e+01
      vertex   -4.905550e+00 2.349754e+00 1.121493e+01
      vertex   -4.830542e+00 2.793741e+00 1.123728e+01
    endloop
  endfacet
  facet normal -9.506250e-01 1.468397e-01 2.734047e-01
    outer loop
      vertex   -4.830542e+00 2.793741e+00 1.123728e+01
      vertex   -4.905550e+00 2.349754e+00 1.121493e+01
      vertex   -4.739850e+00 2.663827e+00 1.162239e+01
    endloop
  endfacet
  facet normal -9.566996e-01 1.301363e-01 2.603661e-01
    outer loop
      vertex   -5.452173e+00 2.796324e+00 8.999037e+00
      vertex   -5.390023e+00 2.707564e+00 9.271770e+00
      vertex   -5.236106e+00 2.930578e+00 9.725861e+00
    endloop
  endfacet
  facet normal -9.566991e-01 1.303314e-01 2.602702e-01
    outer loop
      vertex   -5.236106e+00 2.930578e+00 9.725861e+00
      vertex   -5.390023e+00 2.707564e+00 9.271770e+00
      vertex   -5.327609e+00 2.618428e+00 9.545827e+00
    endloop
  endfacet
  facet normal -9.567242e-01 1.304166e-01 2.601352e-01
    outer loop
      vertex   -5.236106e+00 2.930578e+00 9.725861e+00
      vertex   -5.327609e+00 2.618428e+00 9.545827e+00
      vertex   -5.265001e+00 2.529014e+00 9.820912e+00
    endloop
  endfacet
  facet normal -9.554050e-01 1.313496e-01 2.644779e-01
    outer loop
      vertex   -5.236106e+00 2.930578e+00 9.725861e+00
      vertex   -5.265001e+00 2.529014e+00 9.820912e+00
      vertex   -5.108472e+00 2.748287e+00 1.027746e+01
    endloop
  endfacet
  facet normal -9.553633e-01 1.369547e-01 2.617716e-01
    outer loop
      vertex   -5.108472e+00 2.748287e+00 1.027746e+01
      vertex   -5.265001e+00 2.529014e+00 9.820912e+00
      vertex   -5.202269e+00 2.439423e+00 1.009673e+01
    endloop
  endfacet
  facet normal -9.553909e-01 1.370516e-01 2.616202e-01
    outer loop
      vertex   -5.108472e+00 2.748287e+00 1.027746e+01
      vertex   -5.202269e+00 2.439423e+00 1.009673e+01
      vertex   -5.139481e+00 2.349754e+00 1.037299e+01
    endloop
  endfacet
  facet normal -9.543065e-01 1.378142e-01 2.651534e-01
    outer loop
      vertex   -5.139481e+00 2.349754e+00 1.037299e+01
      vertex   -4.905550e+00 2.349754e+00 1.121493e+01
      vertex   -5.108472e+00 2.748287e+00 1.027746e+01
    endloop
  endfacet
  facet normal -7.517589e-01 -3.379802e-01 5.662402e-01
    outer loop
      vertex   -4.739850e+00 2.663827e+00 1.162239e+01
      vertex   -4.905550e+00 2.349754e+00 1.121493e+01
      vertex   -4.506523e+00 2.505899e+00 1.183789e+01
    endloop
  endfacet
  facet normal -7.392537e-01 -3.660361e-01 5.652624e-01
    outer loop
      vertex   -4.506523e+00 2.505899e+00 1.183789e+01
      vertex   -4.905550e+00 2.349754e+00 1.121493e+01
      vertex   -4.158958e+00 2.349754e+00 1.219133e+01
    endloop
  endfacet
  facet normal -7.431760e-01 -2.960011e-01 6.000606e-01
    outer loop
      vertex   -4.506523e+00 2.505899e+00 1.183789e+01
      vertex   -4.158958e+00 2.349754e+00 1.219133e+01
      vertex   -3.947214e+00 2.503546e+00 1.252944e+01
    endloop
  endfacet
  facet normal -7.039964e-01 -3.671994e-01 6.079092e-01
    outer loop
      vertex   -3.947214e+00 2.503546e+00 1.252944e+01
      vertex   -4.158958e+00 2.349754e+00 1.219133e+01
      vertex   -3.358611e+00 2.349754e+00 1.311818e+01
    endloop
  endfacet
  facet normal -7.118380e-01 -3.079742e-01 6.312199e-01
    outer loop
      vertex   -3.947214e+00 2.503546e+00 1.252944e+01
      vertex   -3.358611e+00 2.349754e+00 1.311818e+01
      vertex   -3.359609e+00 2.501645e+00 1.319116e+01
    endloop
  endfacet
  facet normal -6.727294e-01 -3.240269e-01 6.651630e-01
    outer loop
      vertex   -3.359609e+00 2.501645e+00 1.319116e+01
      vertex   -3.358611e+00 2.349754e+00 1.311818e+01
      vertex   -2.744310e+00 2.500472e+00 1.381289e+01
    endloop
  endfacet
  facet normal -6.723710e-01 -3.255007e-01 6.648056e-01
    outer loop
      vertex   -3.359609e+00 2.501645e+00 1.319116e+01
      vertex   -2.744310e+00 2.500472e+00 1.381289e+01
      vertex   -2.841113e+00 2.651342e+00 1.378885e+01
    endloop
  endfacet
  facet normal -6.405527e-01 -2.982636e-01 7.076235e-01
    outer loop
      vertex   -2.841113e+00 2.651342e+00 1.378885e+01
      vertex   -2.744310e+00 2.500472e+00 1.381289e+01
      vertex   -2.233314e+00 2.503967e+00 1.427692e+01
    endloop
  endfacet
  facet normal -6.428475e-01 -2.873158e-01 7.100681e-01
    outer loop
      vertex   -2.233314e+00 2.503967e+00 1.427692e+01
      vertex   -2.744310e+00 2.500472e+00 1.381289e+01
      vertex   -2.505121e+00 2.349754e+00 1.396845e+01
    endloop
  endfacet
  facet normal -5.917972e-01 -3.794946e-01 7.111680e-01
    outer loop
      vertex   -2.233314e+00 2.503967e+00 1.427692e+01
      vertex   -2.505121e+00 2.349754e+00 1.396845e+01
      vertex   -1.596761e+00 2.349754e+00 1.472434e+01
    endloop
  endfacet
  facet normal -6.577887e-01 -3.624148e-01 6.602799e-01
    outer loop
      vertex   -3.358611e+00 2.349754e+00 1.311818e+01
      vertex   -2.505121e+00 2.349754e+00 1.396845e+01
      vertex   -2.744310e+00 2.500472e+00 1.381289e+01
    endloop
  endfacet
  facet normal -6.721990e-01 -3.259373e-01 6.647657e-01
    outer loop
      vertex   -2.841113e+00 2.651342e+00 1.378885e+01
      vertex   -3.343546e+00 2.653265e+00 1.328174e+01
      vertex   -3.359609e+00 2.501645e+00 1.319116e+01
    endloop
  endfacet
  facet normal -7.057945e-01 -3.067282e-01 6.385703e-01
    outer loop
      vertex   -3.359609e+00 2.501645e+00 1.319116e+01
      vertex   -3.343546e+00 2.653265e+00 1.328174e+01
      vertex   -3.827654e+00 2.656182e+00 1.274808e+01
    endloop
  endfacet
  facet normal -7.030959e-01 -3.421696e-01 6.233587e-01
    outer loop
      vertex   -3.359609e+00 2.501645e+00 1.319116e+01
      vertex   -3.827654e+00 2.656182e+00 1.274808e+01
      vertex   -3.947214e+00 2.503546e+00 1.252944e+01
    endloop
  endfacet
  facet normal -7.469591e-01 -2.792192e-01 6.033977e-01
    outer loop
      vertex   -3.947214e+00 2.503546e+00 1.252944e+01
      vertex   -3.827654e+00 2.656182e+00 1.274808e+01
      vertex   -4.739850e+00 2.663827e+00 1.162239e+01
    endloop
  endfacet
  facet normal -7.467946e-01 -2.804285e-01 6.030403e-01
    outer loop
      vertex   -3.947214e+00 2.503546e+00 1.252944e+01
      vertex   -4.739850e+00 2.663827e+00 1.162239e+01
      vertex   -4.506523e+00 2.505899e+00 1.183789e+01
    endloop
  endfacet
  facet normal 5.839632e-02 9.651995e-01 2.549112e-01
    outer loop
      vertex   -1.329481e+00 2.349754e+00 1.466311e+01
      vertex   -2.166437e+00 2.790209e+00 1.318710e+01
      vertex   -1.596761e+00 2.349754e+00 1.472434e+01
    endloop
  endfacet
  facet normal 4.519247e-02 9.646459e-01 2.596457e-01
    outer loop
      vertex   -1.596761e+00 2.349754e+00 1.472434e+01
      vertex   -2.166437e+00 2.790209e+00 1.318710e+01
      vertex   -2.353043e+00 2.642329e+00 1.376899e+01
    endloop
  endfacet
  facet normal 5.885394e-02 9.666027e-01 2.494302e-01
    outer loop
      vertex   -1.596761e+00 2.349754e+00 1.472434e+01
      vertex   -2.353043e+00 2.642329e+00 1.376899e+01
      vertex   -2.233314e+00 2.503967e+00 1.427692e+01
    endloop
  endfacet
  facet normal 2.828227e-02 9.661284e-01 2.565073e-01
    outer loop
      vertex   -2.233314e+00 2.503967e+00 1.427692e+01
      vertex   -2.353043e+00 2.642329e+00 1.376899e+01
      vertex   -2.841113e+00 2.651342e+00 1.378885e+01
    endloop
  endfacet
  facet normal 2.788075e-02 9.690410e-01 2.453206e-01
    outer loop
      vertex   -2.841113e+00 2.651342e+00 1.378885e+01
      vertex   -2.353043e+00 2.642329e+00 1.376899e+01
      vertex   -2.939048e+00 2.945561e+00 1.263779e+01
    endloop
  endfacet
  facet normal 3.987918e-03 9.689247e-01 2.473238e-01
    outer loop
      vertex   -2.841113e+00 2.651342e+00 1.378885e+01
      vertex   -2.939048e+00 2.945561e+00 1.263779e+01
      vertex   -3.433122e+00 2.952659e+00 1.261795e+01
    endloop
  endfacet
  facet normal 4.344851e-03 9.709688e-01 2.391667e-01
    outer loop
      vertex   -3.433122e+00 2.952659e+00 1.261795e+01
      vertex   -2.939048e+00 2.945561e+00 1.263779e+01
      vertex   -3.509408e+00 3.241185e+00 1.144798e+01
    endloop
  endfacet
  facet normal -1.685098e-02 9.705183e-01 2.404376e-01
    outer loop
      vertex   -3.433122e+00 2.952659e+00 1.261795e+01
      vertex   -3.509408e+00 3.241185e+00 1.144798e+01
      vertex   -4.002942e+00 3.243673e+00 1.140334e+01
    endloop
  endfacet
  facet normal -1.585404e-02 9.731651e-01 2.295612e-01
    outer loop
      vertex   -4.002942e+00 3.243673e+00 1.140334e+01
      vertex   -3.509408e+00 3.241185e+00 1.144798e+01
      vertex   -4.588506e+00 3.802032e+00 8.995888e+00
    endloop
  endfacet
  facet normal -2.534904e-02 9.724555e-01 2.317061e-01
    outer loop
      vertex   -4.002942e+00 3.243673e+00 1.140334e+01
      vertex   -4.588506e+00 3.802032e+00 8.995888e+00
      vertex   -4.552121e+00 3.525197e+00 1.016173e+01
    endloop
  endfacet
  facet normal -5.014550e-02 9.713693e-01 2.322220e-01
    outer loop
      vertex   -4.552121e+00 3.525197e+00 1.016173e+01
      vertex   -4.588506e+00 3.802032e+00 8.995888e+00
      vertex   -5.073363e+00 3.793356e+00 8.927480e+00
    endloop
  endfacet
  facet normal -5.035866e-02 9.709841e-01 2.337817e-01
    outer loop
      vertex   -5.073363e+00 3.793356e+00 8.927480e+00
      vertex   -4.588506e+00 3.802032e+00 8.995888e+00
      vertex   -4.359307e+00 3.943252e+00 8.458718e+00
    endloop
  endfacet
  facet normal -5.097794e-02 9.710135e-01 2.335252e-01
    outer loop
      vertex   -4.359307e+00 3.943252e+00 8.458718e+00
      vertex   -4.588506e+00 3.802032e+00 8.995888e+00
      vertex   -4.357626e+00 3.943340e+00 8.458718e+00
    endloop
  endfacet
  facet normal -4.117338e-02 9.704897e-01 2.376015e-01
    outer loop
      vertex   -4.357626e+00 3.943340e+00 8.458718e+00
      vertex   -4.588506e+00 3.802032e+00 8.995888e+00
      vertex   -3.666313e+00 3.579531e+00 1.006450e+01
    endloop
  endfacet
  facet normal -4.699214e-02 9.690565e-01 2.423245e-01
    outer loop
      vertex   -3.666313e+00 3.579531e+00 1.006450e+01
      vertex   -4.588506e+00 3.802032e+00 8.995888e+00
      vertex   -3.509408e+00 3.241185e+00 1.144798e+01
    endloop
  endfacet
  facet normal -7.549696e-03 9.711469e-01 2.383624e-01
    outer loop
      vertex   -3.666313e+00 3.579531e+00 1.006450e+01
      vertex   -3.509408e+00 3.241185e+00 1.144798e+01
      vertex   -2.930893e+00 3.192510e+00 1.166462e+01
    endloop
  endfacet
  facet normal -1.051870e-02 9.692472e-01 2.458641e-01
    outer loop
      vertex   -2.930893e+00 3.192510e+00 1.166462e+01
      vertex   -3.509408e+00 3.241185e+00 1.144798e+01
      vertex   -2.939048e+00 2.945561e+00 1.263779e+01
    endloop
  endfacet
  facet normal 1.990165e-02 9.690481e-01 2.460685e-01
    outer loop
      vertex   -2.930893e+00 3.192510e+00 1.166462e+01
      vertex   -2.939048e+00 2.945561e+00 1.263779e+01
      vertex   -2.166437e+00 2.790209e+00 1.318710e+01
    endloop
  endfacet
  facet normal 1.606854e-02 9.678242e-01 2.511137e-01
    outer loop
      vertex   -2.166437e+00 2.790209e+00 1.318710e+01
      vertex   -2.939048e+00 2.945561e+00 1.263779e+01
      vertex   -2.353043e+00 2.642329e+00 1.376899e+01
    endloop
  endfacet
  facet normal -4.975426e-01 6.648133e-01 -5.572025e-01
    outer loop
      vertex   -5.323687e+00 3.606982e+00 8.928660e+00
      vertex   -5.165703e+00 3.331342e+00 8.458718e+00
      vertex   -5.373753e+00 3.569709e+00 8.928894e+00
    endloop
  endfacet
  facet normal -5.018779e-01 6.613918e-01 -5.573862e-01
    outer loop
      vertex   -5.373753e+00 3.569709e+00 8.928894e+00
      vertex   -5.165703e+00 3.331342e+00 8.458718e+00
      vertex   -5.367302e+00 3.178365e+00 8.458718e+00
    endloop
  endfacet
  facet normal -5.018779e-01 6.613918e-01 -5.573862e-01
    outer loop
      vertex   -5.373753e+00 3.569709e+00 8.928894e+00
      vertex   -5.367302e+00 3.178365e+00 8.458718e+00
      vertex   -5.568901e+00 3.025388e+00 8.458718e+00
    endloop
  endfacet
  facet normal -4.975555e-01 6.648044e-01 -5.572016e-01
    outer loop
      vertex   -5.323687e+00 3.606982e+00 8.928660e+00
      vertex   -5.273621e+00 3.644255e+00 8.928425e+00
      vertex   -5.165703e+00 3.331342e+00 8.458718e+00
    endloop
  endfacet
  facet normal -5.022877e-01 6.619318e-01 -5.563752e-01
    outer loop
      vertex   -5.165703e+00 3.331342e+00 8.458718e+00
      vertex   -5.273621e+00 3.644255e+00 8.928425e+00
      vertex   -4.964104e+00 3.484320e+00 8.458718e+00
    endloop
  endfacet
  facet normal -4.983810e-01 6.658999e-01 -5.551520e-01
    outer loop
      vertex   -4.964104e+00 3.484320e+00 8.458718e+00
      vertex   -5.273621e+00 3.644255e+00 8.928425e+00
      vertex   -5.223556e+00 3.681530e+00 8.928189e+00
    endloop
  endfacet
  facet normal -4.983927e-01 6.658894e-01 -5.551540e-01
    outer loop
      vertex   -4.964104e+00 3.484320e+00 8.458718e+00
      vertex   -5.223556e+00 3.681530e+00 8.928189e+00
      vertex   -5.173491e+00 3.718804e+00 8.927953e+00
    endloop
  endfacet
  facet normal -4.984050e-01 6.658797e-01 -5.551547e-01
    outer loop
      vertex   -5.173491e+00 3.718804e+00 8.927953e+00
      vertex   -5.123427e+00 3.756080e+00 8.927717e+00
      vertex   -4.964104e+00 3.484320e+00 8.458718e+00
    endloop
  endfacet
  facet normal -4.984178e-01 6.658708e-01 -5.551538e-01
    outer loop
      vertex   -4.964104e+00 3.484320e+00 8.458718e+00
      vertex   -5.123427e+00 3.756080e+00 8.927717e+00
      vertex   -5.073363e+00 3.793356e+00 8.927480e+00
    endloop
  endfacet
  facet normal -5.031025e-01 6.630056e-01 -5.543568e-01
    outer loop
      vertex   -4.964104e+00 3.484320e+00 8.458718e+00
      vertex   -5.073363e+00 3.793356e+00 8.927480e+00
      vertex   -4.762505e+00 3.637297e+00 8.458718e+00
    endloop
  endfacet
  facet normal -5.031025e-01 6.630056e-01 -5.543568e-01
    outer loop
      vertex   -4.762505e+00 3.637297e+00 8.458718e+00
      vertex   -5.073363e+00 3.793356e+00 8.927480e+00
      vertex   -4.560906e+00 3.790275e+00 8.458718e+00
    endloop
  endfacet
  facet normal -5.031025e-01 6.630056e-01 -5.543568e-01
    outer loop
      vertex   -4.560906e+00 3.790275e+00 8.458718e+00
      vertex   -5.073363e+00 3.793356e+00 8.927480e+00
      vertex   -4.359307e+00 3.943252e+00 8.458718e+00
    endloop
  endfacet
  facet normal 1.563514e-08 -2.060453e-08 -1.000000e+00
    outer loop
      vertex   -5.568901e+00 3.025388e+00 8.458718e+00
      vertex   -5.367302e+00 3.178365e+00 8.458718e+00
      vertex   -5.575407e+00 2.972320e+00 8.458718e+00
    endloop
  endfacet
  facet normal -3.745763e-09 -1.029869e-09 -1.000000e+00
    outer loop
      vertex   -5.575407e+00 2.972320e+00 8.458718e+00
      vertex   -5.367302e+00 3.178365e+00 8.458718e+00
      vertex   -5.139481e+00 2.349754e+00 8.458718e+00
    endloop
  endfacet
  facet normal 0.000000e+00 0.000000e+00 -1.000000e+00
    outer loop
      vertex   -5.139481e+00 2.349754e+00 8.458718e+00
      vertex   -5.367302e+00 3.178365e+00 8.458718e+00
      vertex   -5.165703e+00 3.331342e+00 8.458718e+00
    endloop
  endfacet
  facet normal 8.636280e-15 2.307036e-16 -1.000000e+00
    outer loop
      vertex   -5.139481e+00 2.349754e+00 8.458718e+00
      vertex   -5.165703e+00 3.331342e+00 8.458718e+00
      vertex   -4.964104e+00 3.484320e+00 8.458718e+00
    endloop
  endfacet
  facet normal -1.345937e-15 1.773721e-15 -1.000000e+00
    outer loop
      vertex   -4.964104e+00 3.484320e+00 8.458718e+00
      vertex   -4.762505e+00 3.637297e+00 8.458718e+00
      vertex   -5.139481e+00 2.349754e+00 8.458718e+00
    endloop
  endfacet
  facet normal -1.345937e-15 1.773721e-15 -1.000000e+00
    outer loop
      vertex   -5.139481e+00 2.349754e+00 8.458718e+00
      vertex   -4.762505e+00 3.637297e+00 8.458718e+00
      vertex   -4.560906e+00 3.790275e+00 8.458718e+00
    endloop
  endfacet
  facet normal 4.662354e-16 1.045875e-15 -1.000000e+00
    outer loop
      vertex   -5.139481e+00 2.349754e+00 8.458718e+00
      vertex   -4.560906e+00 3.790275e+00 8.458718e+00
      vertex   -1.329481e+00 2.349754e+00 8.458718e+00
    endloop
  endfacet
  facet normal 0.000000e+00 0.000000e+00 -1.000000e+00
    outer loop
      vertex   -1.329481e+00 2.349754e+00 8.458718e+00
      vertex   -4.560906e+00 3.790275e+00 8.458718e+00
      vertex   -4.357626e+00 3.943340e+00 8.458718e+00
    endloop
  endfacet
  facet normal 0.000000e+00 0.000000e+00 -1.000000e+00
    outer loop
      vertex   -4.357626e+00 3.943340e+00 8.458718e+00
      vertex   -4.560906e+00 3.790275e+00 8.458718e+00
      vertex   -4.359307e+00 3.943252e+00 8.458718e+00
    endloop
  endfacet
  facet normal 4.657066e-01 8.849392e-01 -6.465608e-16
    outer loop
      vertex   -4.357626e+00 3.943340e+00 8.458718e+00
      vertex   -3.666313e+00 3.579531e+00 1.006450e+01
      vertex   -1.329481e+00 2.349754e+00 8.458718e+00
    endloop
  endfacet
  facet normal 4.657066e-01 8.849392e-01 1.996862e-16
    outer loop
      vertex   -1.329481e+00 2.349754e+00 8.458718e+00
      vertex   -3.666313e+00 3.579531e+00 1.006450e+01
      vertex   -2.930893e+00 3.192510e+00 1.166462e+01
    endloop
  endfacet
  facet normal 4.657066e-01 8.849392e-01 1.004809e-16
    outer loop
      vertex   -1.329481e+00 2.349754e+00 8.458718e+00
      vertex   -2.930893e+00 3.192510e+00 1.166462e+01
      vertex   -2.166437e+00 2.790209e+00 1.318710e+01
    endloop
  endfacet
  facet normal 4.657066e-01 8.849392e-01 9.460019e-18
    outer loop
      vertex   -2.166437e+00 2.790209e+00 1.318710e+01
      vertex   -1.329481e+00 2.349754e+00 1.466311e+01
      vertex   -1.329481e+00 2.349754e+00 8.458718e+00
    endloop
  endfacet
  facet normal -5.514731e-01 7.431478e-01 3.789576e-01
    outer loop
      vertex   -5.373753e+00 3.569709e+00 8.928894e+00
      vertex   -5.284309e+00 3.442131e+00 9.309242e+00
      vertex   -5.323687e+00 3.606982e+00 8.928660e+00
    endloop
  endfacet
  facet normal -5.514816e-01 7.431422e-01 3.789561e-01
    outer loop
      vertex   -5.323687e+00 3.606982e+00 8.928660e+00
      vertex   -5.284309e+00 3.442131e+00 9.309242e+00
      vertex   -5.273621e+00 3.644255e+00 8.928425e+00
    endloop
  endfacet
  facet normal -5.508671e-01 7.434939e-01 3.791600e-01
    outer loop
      vertex   -5.273621e+00 3.644255e+00 8.928425e+00
      vertex   -5.284309e+00 3.442131e+00 9.309242e+00
      vertex   -5.194169e+00 3.313497e+00 9.692440e+00
    endloop
  endfacet
  facet normal -5.381332e-01 7.516469e-01 3.813654e-01
    outer loop
      vertex   -5.273621e+00 3.644255e+00 8.928425e+00
      vertex   -5.194169e+00 3.313497e+00 9.692440e+00
      vertex   -4.899933e+00 3.023661e+00 1.067888e+01
    endloop
  endfacet
  facet normal -5.145077e-01 7.689793e-01 3.794110e-01
    outer loop
      vertex   -4.899933e+00 3.023661e+00 1.067888e+01
      vertex   -5.194169e+00 3.313497e+00 9.692440e+00
      vertex   -5.103526e+00 3.184075e+00 1.007767e+01
    endloop
  endfacet
  facet normal -5.162244e-01 7.677082e-01 3.796532e-01
    outer loop
      vertex   -4.899933e+00 3.023661e+00 1.067888e+01
      vertex   -5.103526e+00 3.184075e+00 1.007767e+01
      vertex   -5.012577e+00 3.054131e+00 1.046410e+01
    endloop
  endfacet
  facet normal -5.168393e-01 7.671724e-01 3.798996e-01
    outer loop
      vertex   -5.012577e+00 3.054131e+00 1.046410e+01
      vertex   -4.921516e+00 2.923931e+00 1.085091e+01
      vertex   -4.899933e+00 3.023661e+00 1.067888e+01
    endloop
  endfacet
  facet normal -5.015985e-01 7.742529e-01 3.859163e-01
    outer loop
      vertex   -4.899933e+00 3.023661e+00 1.067888e+01
      vertex   -4.921516e+00 2.923931e+00 1.085091e+01
      vertex   -4.002942e+00 3.243673e+00 1.140334e+01
    endloop
  endfacet
  facet normal -5.087652e-01 7.633271e-01 3.981076e-01
    outer loop
      vertex   -4.899933e+00 3.023661e+00 1.067888e+01
      vertex   -4.002942e+00 3.243673e+00 1.140334e+01
      vertex   -4.552121e+00 3.525197e+00 1.016173e+01
    endloop
  endfacet
  facet normal -4.995045e-01 7.785457e-01 3.799498e-01
    outer loop
      vertex   -4.921516e+00 2.923931e+00 1.085091e+01
      vertex   -4.830542e+00 2.793741e+00 1.123728e+01
      vertex   -4.002942e+00 3.243673e+00 1.140334e+01
    endloop
  endfacet
  facet normal -4.994913e-01 7.784200e-01 3.802246e-01
    outer loop
      vertex   -4.002942e+00 3.243673e+00 1.140334e+01
      vertex   -4.830542e+00 2.793741e+00 1.123728e+01
      vertex   -4.739850e+00 2.663827e+00 1.162239e+01
    endloop
  endfacet
  facet normal -4.894758e-01 7.738797e-01 4.019000e-01
    outer loop
      vertex   -4.002942e+00 3.243673e+00 1.140334e+01
      vertex   -4.739850e+00 2.663827e+00 1.162239e+01
      vertex   -3.827654e+00 2.656182e+00 1.274808e+01
    endloop
  endfacet
  facet normal -4.600794e-01 7.900580e-01 4.051362e-01
    outer loop
      vertex   -4.002942e+00 3.243673e+00 1.140334e+01
      vertex   -3.827654e+00 2.656182e+00 1.274808e+01
      vertex   -3.433122e+00 2.952659e+00 1.261795e+01
    endloop
  endfacet
  facet normal -4.543784e-01 7.874522e-01 4.164844e-01
    outer loop
      vertex   -3.433122e+00 2.952659e+00 1.261795e+01
      vertex   -3.827654e+00 2.656182e+00 1.274808e+01
      vertex   -3.343546e+00 2.653265e+00 1.328174e+01
    endloop
  endfacet
  facet normal -4.204112e-01 8.044892e-01 4.195850e-01
    outer loop
      vertex   -3.433122e+00 2.952659e+00 1.261795e+01
      vertex   -3.343546e+00 2.653265e+00 1.328174e+01
      vertex   -2.841113e+00 2.651342e+00 1.378885e+01
    endloop
  endfacet
  facet normal -5.482132e-01 7.387669e-01 3.920277e-01
    outer loop
      vertex   -5.073363e+00 3.793356e+00 8.927480e+00
      vertex   -5.123427e+00 3.756080e+00 8.927717e+00
      vertex   -4.552121e+00 3.525197e+00 1.016173e+01
    endloop
  endfacet
  facet normal -5.482057e-01 7.387737e-01 3.920255e-01
    outer loop
      vertex   -4.552121e+00 3.525197e+00 1.016173e+01
      vertex   -5.123427e+00 3.756080e+00 8.927717e+00
      vertex   -5.173491e+00 3.718804e+00 8.927953e+00
    endloop
  endfacet
  facet normal -5.481982e-01 7.387806e-01 3.920228e-01
    outer loop
      vertex   -4.552121e+00 3.525197e+00 1.016173e+01
      vertex   -5.173491e+00 3.718804e+00 8.927953e+00
      vertex   -5.223556e+00 3.681530e+00 8.928189e+00
    endloop
  endfacet
  facet normal -5.481909e-01 7.387877e-01 3.920197e-01
    outer loop
      vertex   -5.223556e+00 3.681530e+00 8.928189e+00
      vertex   -5.273621e+00 3.644255e+00 8.928425e+00
      vertex   -4.552121e+00 3.525197e+00 1.016173e+01
    endloop
  endfacet
  facet normal -5.271911e-01 7.591913e-01 3.817042e-01
    outer loop
      vertex   -4.552121e+00 3.525197e+00 1.016173e+01
      vertex   -5.273621e+00 3.644255e+00 8.928425e+00
      vertex   -4.899933e+00 3.023661e+00 1.067888e+01
    endloop
  endfacet
  facet normal -7.813551e-17 -1.000000e+00 5.974548e-17
    outer loop
      vertex   -4.158958e+00 2.349754e+00 1.219133e+01
      vertex   -4.905550e+00 2.349754e+00 1.121493e+01
      vertex   -1.329481e+00 2.349754e+00 8.458718e+00
    endloop
  endfacet
  facet normal 7.356194e-10 -1.000000e+00 9.544349e-10
    outer loop
      vertex   -1.329481e+00 2.349754e+00 8.458718e+00
      vertex   -4.905550e+00 2.349754e+00 1.121493e+01
      vertex   -5.139481e+00 2.349754e+00 1.037299e+01
    endloop
  endfacet
  facet normal 2.376283e-25 -1.000000e+00 -5.096744e-10
    outer loop
      vertex   -1.329481e+00 2.349754e+00 8.458718e+00
      vertex   -5.139481e+00 2.349754e+00 1.037299e+01
      vertex   -5.139481e+00 2.349754e+00 8.458718e+00
    endloop
  endfacet
  facet normal -2.445805e-12 -1.000000e+00 -5.217933e-13
    outer loop
      vertex   -1.329481e+00 2.349754e+00 1.466311e+01
      vertex   -2.505121e+00 2.349754e+00 1.396845e+01
      vertex   -1.329481e+00 2.349754e+00 8.458718e+00
    endloop
  endfacet
  facet normal -6.622032e-17 -1.000000e+00 6.647111e-17
    outer loop
      vertex   -1.329481e+00 2.349754e+00 8.458718e+00
      vertex   -2.505121e+00 2.349754e+00 1.396845e+01
      vertex   -3.358611e+00 2.349754e+00 1.311818e+01
    endloop
  endfacet
  facet normal -7.337128e-17 -1.000000e+00 6.335697e-17
    outer loop
      vertex   -1.329481e+00 2.349754e+00 8.458718e+00
      vertex   -3.358611e+00 2.349754e+00 1.311818e+01
      vertex   -4.158958e+00 2.349754e+00 1.219133e+01
    endloop
  endfacet
  facet normal -9.501469e-12 -1.000000e+00 1.141917e-11
    outer loop
      vertex   -1.329481e+00 2.349754e+00 1.466311e+01
      vertex   -1.596761e+00 2.349754e+00 1.472434e+01
      vertex   -2.505121e+00 2.349754e+00 1.396845e+01
    endloop
  endfacet
  facet normal -8.191520e-01 -5.735764e-01 3.499388e-16
    outer loop
      vertex   -5.139481e+00 2.349754e+00 1.037299e+01
      vertex   -5.202269e+00 2.439423e+00 1.009673e+01
      vertex   -5.139481e+00 2.349754e+00 8.458718e+00
    endloop
  endfacet
  facet normal -8.191520e-01 -5.735764e-01 -7.955040e-16
    outer loop
      vertex   -5.139481e+00 2.349754e+00 8.458718e+00
      vertex   -5.202269e+00 2.439423e+00 1.009673e+01
      vertex   -5.265001e+00 2.529014e+00 9.820912e+00
    endloop
  endfacet
  facet normal -8.191520e-01 -5.735764e-01 2.557816e-15
    outer loop
      vertex   -5.139481e+00 2.349754e+00 8.458718e+00
      vertex   -5.265001e+00 2.529014e+00 9.820912e+00
      vertex   -5.327609e+00 2.618428e+00 9.545827e+00
    endloop
  endfacet
  facet normal -8.191520e-01 -5.735764e-01 -5.499597e-16
    outer loop
      vertex   -5.327609e+00 2.618428e+00 9.545827e+00
      vertex   -5.390023e+00 2.707564e+00 9.271770e+00
      vertex   -5.139481e+00 2.349754e+00 8.458718e+00
    endloop
  endfacet
  facet normal -8.191520e-01 -5.735764e-01 2.879616e-15
    outer loop
      vertex   -5.139481e+00 2.349754e+00 8.458718e+00
      vertex   -5.390023e+00 2.707564e+00 9.271770e+00
      vertex   -5.452173e+00 2.796324e+00 8.999037e+00
    endloop
  endfacet
  facet normal -8.191520e-01 -5.735764e-01 -1.212415e-15
    outer loop
      vertex   -5.139481e+00 2.349754e+00 8.458718e+00
      vertex   -5.452173e+00 2.796324e+00 8.999037e+00
      vertex   -5.513991e+00 2.884609e+00 8.727922e+00
    endloop
  endfacet
  facet normal -8.191520e-01 -5.735764e-01 -8.478692e-16
    outer loop
      vertex   -5.513991e+00 2.884609e+00 8.727922e+00
      vertex   -5.575407e+00 2.972320e+00 8.458718e+00
      vertex   -5.139481e+00 2.349754e+00 8.458718e+00
    endloop
  endfacet
  facet normal 9.543065e-01 1.378142e-01 2.651534e-01
    outer loop
      vertex   4.786587e+00 2.349754e+00 1.121493e+01
      vertex   5.020519e+00 2.349754e+00 1.037299e+01
      vertex   4.989509e+00 2.748287e+00 1.027746e+01
    endloop
  endfacet
  facet normal 9.553909e-01 1.370516e-01 2.616202e-01
    outer loop
      vertex   4.989509e+00 2.748287e+00 1.027746e+01
      vertex   5.020519e+00 2.349754e+00 1.037299e+01
      vertex   5.083306e+00 2.439423e+00 1.009673e+01
    endloop
  endfacet
  facet normal 9.553633e-01 1.369547e-01 2.617716e-01
    outer loop
      vertex   4.989509e+00 2.748287e+00 1.027746e+01
      vertex   5.083306e+00 2.439423e+00 1.009673e+01
      vertex   5.146038e+00 2.529014e+00 9.820912e+00
    endloop
  endfacet
  facet normal 9.554050e-01 1.313496e-01 2.644779e-01
    outer loop
      vertex   4.989509e+00 2.748287e+00 1.027746e+01
      vertex   5.146038e+00 2.529014e+00 9.820912e+00
      vertex   5.117143e+00 2.930578e+00 9.725861e+00
    endloop
  endfacet
  facet normal 9.567242e-01 1.304166e-01 2.601352e-01
    outer loop
      vertex   5.117143e+00 2.930578e+00 9.725861e+00
      vertex   5.146038e+00 2.529014e+00 9.820912e+00
      vertex   5.208646e+00 2.618428e+00 9.545827e+00
    endloop
  endfacet
  facet normal 9.566991e-01 1.303314e-01 2.602702e-01
    outer loop
      vertex   5.117143e+00 2.930578e+00 9.725861e+00
      vertex   5.208646e+00 2.618428e+00 9.545827e+00
      vertex   5.271060e+00 2.707564e+00 9.271770e+00
    endloop
  endfacet
  facet normal 9.566917e-01 1.242510e-01 2.632539e-01
    outer loop
      vertex   5.117143e+00 2.930578e+00 9.725861e+00
      vertex   5.271060e+00 2.707564e+00 9.271770e+00
      vertex   5.165347e+00 3.442131e+00 9.309242e+00
    endloop
  endfacet
  facet normal 9.578448e-01 1.246422e-01 2.588390e-01
    outer loop
      vertex   5.165347e+00 3.442131e+00 9.309242e+00
      vertex   5.271060e+00 2.707564e+00 9.271770e+00
      vertex   5.333211e+00 2.796324e+00 8.999037e+00
    endloop
  endfacet
  facet normal 9.564692e-01 1.210679e-01 2.655357e-01
    outer loop
      vertex   5.165347e+00 3.442131e+00 9.309242e+00
      vertex   5.333211e+00 2.796324e+00 8.999037e+00
      vertex   5.254790e+00 3.569709e+00 8.928894e+00
    endloop
  endfacet
  facet normal 9.586304e-01 1.205899e-01 2.578485e-01
    outer loop
      vertex   5.254790e+00 3.569709e+00 8.928894e+00
      vertex   5.333211e+00 2.796324e+00 8.999037e+00
      vertex   5.395028e+00 2.884609e+00 8.727922e+00
    endloop
  endfacet
  facet normal 9.584925e-01 1.203831e-01 2.584572e-01
    outer loop
      vertex   5.254790e+00 3.569709e+00 8.928894e+00
      vertex   5.395028e+00 2.884609e+00 8.727922e+00
      vertex   5.449938e+00 3.025388e+00 8.458718e+00
    endloop
  endfacet
  facet normal 9.591916e-01 1.175970e-01 2.571427e-01
    outer loop
      vertex   5.449938e+00 3.025388e+00 8.458718e+00
      vertex   5.395028e+00 2.884609e+00 8.727922e+00
      vertex   5.456444e+00 2.972320e+00 8.458718e+00
    endloop
  endfacet
  facet normal 9.549987e-01 1.279462e-01 2.675952e-01
    outer loop
      vertex   5.165347e+00 3.442131e+00 9.309242e+00
      vertex   5.075206e+00 3.313497e+00 9.692440e+00
      vertex   5.117143e+00 2.930578e+00 9.725861e+00
    endloop
  endfacet
  facet normal 9.549718e-01 1.279514e-01 2.676887e-01
    outer loop
      vertex   5.117143e+00 2.930578e+00 9.725861e+00
      vertex   5.075206e+00 3.313497e+00 9.692440e+00
      vertex   4.984564e+00 3.184075e+00 1.007767e+01
    endloop
  endfacet
  facet normal 9.552206e-01 1.322046e-01 2.647178e-01
    outer loop
      vertex   5.117143e+00 2.930578e+00 9.725861e+00
      vertex   4.984564e+00 3.184075e+00 1.007767e+01
      vertex   4.989509e+00 2.748287e+00 1.027746e+01
    endloop
  endfacet
  facet normal 9.535340e-01 1.344370e-01 2.696288e-01
    outer loop
      vertex   4.989509e+00 2.748287e+00 1.027746e+01
      vertex   4.984564e+00 3.184075e+00 1.007767e+01
      vertex   4.893614e+00 3.054131e+00 1.046410e+01
    endloop
  endfacet
  facet normal 9.535196e-01 1.343859e-01 2.697051e-01
    outer loop
      vertex   4.989509e+00 2.748287e+00 1.027746e+01
      vertex   4.893614e+00 3.054131e+00 1.046410e+01
      vertex   4.802554e+00 2.923931e+00 1.085091e+01
    endloop
  endfacet
  facet normal 9.530656e-01 1.427666e-01 2.669901e-01
    outer loop
      vertex   4.989509e+00 2.748287e+00 1.027746e+01
      vertex   4.802554e+00 2.923931e+00 1.085091e+01
      vertex   4.786587e+00 2.349754e+00 1.121493e+01
    endloop
  endfacet
  facet normal 9.506478e-01 1.468477e-01 2.733213e-01
    outer loop
      vertex   4.786587e+00 2.349754e+00 1.121493e+01
      vertex   4.802554e+00 2.923931e+00 1.085091e+01
      vertex   4.711579e+00 2.793741e+00 1.123728e+01
    endloop
  endfacet
  facet normal 9.506250e-01 1.468397e-01 2.734047e-01
    outer loop
      vertex   4.786587e+00 2.349754e+00 1.121493e+01
      vertex   4.711579e+00 2.793741e+00 1.123728e+01
      vertex   4.620887e+00 2.663827e+00 1.162239e+01
    endloop
  endfacet
  facet normal 5.087629e-02 9.690773e-01 2.414555e-01
    outer loop
      vertex   4.238664e+00 3.943340e+00 8.458718e+00
      vertex   3.547666e+00 3.579697e+00 1.006379e+01
      vertex   4.240345e+00 3.943252e+00 8.458718e+00
    endloop
  endfacet
  facet normal 4.117714e-02 9.704923e-01 2.375903e-01
    outer loop
      vertex   4.240345e+00 3.943252e+00 8.458718e+00
      vertex   3.547666e+00 3.579697e+00 1.006379e+01
      vertex   4.470159e+00 3.802353e+00 8.994426e+00
    endloop
  endfacet
  facet normal 5.035942e-02 9.709843e-01 2.337806e-01
    outer loop
      vertex   4.240345e+00 3.943252e+00 8.458718e+00
      vertex   4.470159e+00 3.802353e+00 8.994426e+00
      vertex   4.954400e+00 3.793356e+00 8.927480e+00
    endloop
  endfacet
  facet normal 5.014944e-02 9.713721e-01 2.322096e-01
    outer loop
      vertex   4.954400e+00 3.793356e+00 8.927480e+00
      vertex   4.470159e+00 3.802353e+00 8.994426e+00
      vertex   4.434857e+00 3.526070e+00 1.015779e+01
    endloop
  endfacet
  facet normal 2.784887e-02 9.723718e-01 2.317704e-01
    outer loop
      vertex   4.434857e+00 3.526070e+00 1.015779e+01
      vertex   4.470159e+00 3.802353e+00 8.994426e+00
      vertex   3.668514e+00 3.385514e+00 1.083956e+01
    endloop
  endfacet
  facet normal 2.928877e-02 9.719625e-01 2.333045e-01
    outer loop
      vertex   4.434857e+00 3.526070e+00 1.015779e+01
      vertex   3.668514e+00 3.385514e+00 1.083956e+01
      vertex   3.885362e+00 3.244381e+00 1.140030e+01
    endloop
  endfacet
  facet normal 1.452966e-02 9.709694e-01 2.387621e-01
    outer loop
      vertex   3.885362e+00 3.244381e+00 1.140030e+01
      vertex   3.668514e+00 3.385514e+00 1.083956e+01
      vertex   3.245553e+00 3.166034e+00 1.175785e+01
    endloop
  endfacet
  facet normal 1.505263e-02 9.707431e-01 2.396483e-01
    outer loop
      vertex   3.885362e+00 3.244381e+00 1.140030e+01
      vertex   3.245553e+00 3.166034e+00 1.175785e+01
      vertex   3.313372e+00 2.952257e+00 1.261954e+01
    endloop
  endfacet
  facet normal -4.465376e-03 9.704849e-01 2.411204e-01
    outer loop
      vertex   3.313372e+00 2.952257e+00 1.261954e+01
      vertex   3.245553e+00 3.166034e+00 1.175785e+01
      vertex   2.813244e+00 2.942018e+00 1.265149e+01
    endloop
  endfacet
  facet normal -4.038437e-03 9.689293e-01 2.473050e-01
    outer loop
      vertex   3.313372e+00 2.952257e+00 1.261954e+01
      vertex   2.813244e+00 2.942018e+00 1.265149e+01
      vertex   2.722150e+00 2.651342e+00 1.378885e+01
    endloop
  endfacet
  facet normal -2.812507e-02 9.690144e-01 2.453976e-01
    outer loop
      vertex   2.722150e+00 2.651342e+00 1.378885e+01
      vertex   2.813244e+00 2.942018e+00 1.265149e+01
      vertex   2.228162e+00 2.639268e+00 1.377992e+01
    endloop
  endfacet
  facet normal -2.825593e-02 9.661208e-01 2.565391e-01
    outer loop
      vertex   2.722150e+00 2.651342e+00 1.378885e+01
      vertex   2.228162e+00 2.639268e+00 1.377992e+01
      vertex   2.114302e+00 2.503955e+00 1.427696e+01
    endloop
  endfacet
  facet normal -5.818038e-02 9.665479e-01 2.498004e-01
    outer loop
      vertex   2.114302e+00 2.503955e+00 1.427696e+01
      vertex   2.228162e+00 2.639268e+00 1.377992e+01
      vertex   1.210519e+00 2.349754e+00 1.466311e+01
    endloop
  endfacet
  facet normal -5.753990e-02 9.662305e-01 2.511728e-01
    outer loop
      vertex   2.114302e+00 2.503955e+00 1.427696e+01
      vertex   1.210519e+00 2.349754e+00 1.466311e+01
      vertex   1.477798e+00 2.349754e+00 1.472434e+01
    endloop
  endfacet
  facet normal 4.012753e-02 9.707447e-01 2.367374e-01
    outer loop
      vertex   4.470159e+00 3.802353e+00 8.994426e+00
      vertex   3.547666e+00 3.579697e+00 1.006379e+01
      vertex   3.668514e+00 3.385514e+00 1.083956e+01
    endloop
  endfacet
  facet normal 1.325199e-02 9.704705e-01 2.408554e-01
    outer loop
      vertex   3.668514e+00 3.385514e+00 1.083956e+01
      vertex   3.547666e+00 3.579697e+00 1.006379e+01
      vertex   2.808845e+00 3.190887e+00 1.167106e+01
    endloop
  endfacet
  facet normal 8.376515e-03 9.716925e-01 2.361008e-01
    outer loop
      vertex   3.668514e+00 3.385514e+00 1.083956e+01
      vertex   2.808845e+00 3.190887e+00 1.167106e+01
      vertex   3.245553e+00 3.166034e+00 1.175785e+01
    endloop
  endfacet
  facet normal 6.269362e-03 9.692486e-01 2.460036e-01
    outer loop
      vertex   3.245553e+00 3.166034e+00 1.175785e+01
      vertex   2.808845e+00 3.190887e+00 1.167106e+01
      vertex   2.813244e+00 2.942018e+00 1.265149e+01
    endloop
  endfacet
  facet normal -2.022260e-02 9.690411e-01 2.460698e-01
    outer loop
      vertex   2.808845e+00 3.190887e+00 1.167106e+01
      vertex   2.041055e+00 2.786831e+00 1.319917e+01
      vertex   2.813244e+00 2.942018e+00 1.265149e+01
    endloop
  endfacet
  facet normal -1.635129e-02 9.678030e-01 2.511772e-01
    outer loop
      vertex   2.813244e+00 2.942018e+00 1.265149e+01
      vertex   2.041055e+00 2.786831e+00 1.319917e+01
      vertex   2.228162e+00 2.639268e+00 1.377992e+01
    endloop
  endfacet
  facet normal -4.820813e-02 9.642586e-01 2.605404e-01
    outer loop
      vertex   2.041055e+00 2.786831e+00 1.319917e+01
      vertex   1.210519e+00 2.349754e+00 1.466311e+01
      vertex   2.228162e+00 2.639268e+00 1.377992e+01
    endloop
  endfacet
  facet normal 7.524036e-01 -2.532229e-01 6.080846e-01
    outer loop
      vertex   3.707238e+00 2.656171e+00 1.274969e+01
      vertex   4.049002e+00 2.504421e+00 1.226362e+01
      vertex   4.620887e+00 2.663827e+00 1.162239e+01
    endloop
  endfacet
  facet normal 7.455335e-01 -3.175076e-01 5.859767e-01
    outer loop
      vertex   4.620887e+00 2.663827e+00 1.162239e+01
      vertex   4.049002e+00 2.504421e+00 1.226362e+01
      vertex   4.038321e+00 2.349754e+00 1.219340e+01
    endloop
  endfacet
  facet normal 7.452338e-01 -3.461748e-01 5.699032e-01
    outer loop
      vertex   4.620887e+00 2.663827e+00 1.162239e+01
      vertex   4.038321e+00 2.349754e+00 1.219340e+01
      vertex   4.786587e+00 2.349754e+00 1.121493e+01
    endloop
  endfacet
  facet normal 7.046231e-01 -3.640356e-01 6.090849e-01
    outer loop
      vertex   4.049002e+00 2.504421e+00 1.226362e+01
      vertex   3.707238e+00 2.656171e+00 1.274969e+01
      vertex   3.316975e+00 2.501852e+00 1.310893e+01
    endloop
  endfacet
  facet normal 7.075952e-01 -2.987303e-01 6.403665e-01
    outer loop
      vertex   3.316975e+00 2.501852e+00 1.310893e+01
      vertex   3.707238e+00 2.656171e+00 1.274969e+01
      vertex   3.223177e+00 2.653258e+00 1.328321e+01
    endloop
  endfacet
  facet normal 6.705978e-01 -3.421701e-01 6.581931e-01
    outer loop
      vertex   3.316975e+00 2.501852e+00 1.310893e+01
      vertex   3.223177e+00 2.653258e+00 1.328321e+01
      vertex   2.625051e+00 2.500472e+00 1.381318e+01
    endloop
  endfacet
  facet normal 6.722826e-01 -3.254748e-01 6.649077e-01
    outer loop
      vertex   2.625051e+00 2.500472e+00 1.381318e+01
      vertex   3.223177e+00 2.653258e+00 1.328321e+01
      vertex   2.722150e+00 2.651342e+00 1.378885e+01
    endloop
  endfacet
  facet normal 6.405567e-01 -2.981632e-01 7.076622e-01
    outer loop
      vertex   2.625051e+00 2.500472e+00 1.381318e+01
      vertex   2.722150e+00 2.651342e+00 1.378885e+01
      vertex   2.114302e+00 2.503955e+00 1.427696e+01
    endloop
  endfacet
  facet normal 5.918045e-01 -3.793871e-01 7.112193e-01
    outer loop
      vertex   1.477798e+00 2.349754e+00 1.472434e+01
      vertex   2.385707e+00 2.349754e+00 1.396887e+01
      vertex   2.114302e+00 2.503955e+00 1.427696e+01
    endloop
  endfacet
  facet normal 6.428309e-01 -2.873107e-01 7.100852e-01
    outer loop
      vertex   2.114302e+00 2.503955e+00 1.427696e+01
      vertex   2.385707e+00 2.349754e+00 1.396887e+01
      vertex   2.625051e+00 2.500472e+00 1.381318e+01
    endloop
  endfacet
  facet normal 6.577375e-01 -3.623330e-01 6.603757e-01
    outer loop
      vertex   2.385707e+00 2.349754e+00 1.396887e+01
      vertex   3.237274e+00 2.349754e+00 1.312071e+01
      vertex   2.625051e+00 2.500472e+00 1.381318e+01
    endloop
  endfacet
  facet normal 6.797363e-01 -3.045359e-01 6.672454e-01
    outer loop
      vertex   2.625051e+00 2.500472e+00 1.381318e+01
      vertex   3.237274e+00 2.349754e+00 1.312071e+01
      vertex   3.316975e+00 2.501852e+00 1.310893e+01
    endloop
  endfacet
  facet normal 7.151613e-01 -3.269278e-01 6.177885e-01
    outer loop
      vertex   3.237274e+00 2.349754e+00 1.312071e+01
      vertex   4.038321e+00 2.349754e+00 1.219340e+01
      vertex   3.316975e+00 2.501852e+00 1.310893e+01
    endloop
  endfacet
  facet normal 7.141880e-01 -3.296413e-01 6.174724e-01
    outer loop
      vertex   3.316975e+00 2.501852e+00 1.310893e+01
      vertex   4.038321e+00 2.349754e+00 1.219340e+01
      vertex   4.049002e+00 2.504421e+00 1.226362e+01
    endloop
  endfacet
  facet normal 5.018779e-01 6.613918e-01 -5.573862e-01
    outer loop
      vertex   5.449938e+00 3.025388e+00 8.458718e+00
      vertex   5.248339e+00 3.178365e+00 8.458718e+00
      vertex   5.254790e+00 3.569709e+00 8.928894e+00
    endloop
  endfacet
  facet normal 4.967289e-01 6.637075e-01 -5.592430e-01
    outer loop
      vertex   5.254790e+00 3.569709e+00 8.928894e+00
      vertex   5.248339e+00 3.178365e+00 8.458718e+00
      vertex   5.204724e+00 3.606982e+00 8.928660e+00
    endloop
  endfacet
  facet normal 5.020830e-01 6.616621e-01 -5.568806e-01
    outer loop
      vertex   5.204724e+00 3.606982e+00 8.928660e+00
      vertex   5.248339e+00 3.178365e+00 8.458718e+00
      vertex   5.046740e+00 3.331342e+00 8.458718e+00
    endloop
  endfacet
  facet normal 4.975555e-01 6.648044e-01 -5.572016e-01
    outer loop
      vertex   5.204724e+00 3.606982e+00 8.928660e+00
      vertex   5.046740e+00 3.331342e+00 8.458718e+00
      vertex   5.154658e+00 3.644255e+00 8.928425e+00
    endloop
  endfacet
  facet normal 5.022877e-01 6.619318e-01 -5.563752e-01
    outer loop
      vertex   5.154658e+00 3.644255e+00 8.928425e+00
      vertex   5.046740e+00 3.331342e+00 8.458718e+00
      vertex   4.845141e+00 3.484320e+00 8.458718e+00
    endloop
  endfacet
  facet normal 4.983810e-01 6.658999e-01 -5.551520e-01
    outer loop
      vertex   5.154658e+00 3.644255e+00 8.928425e+00
      vertex   4.845141e+00 3.484320e+00 8.458718e+00
      vertex   5.104593e+00 3.681530e+00 8.928189e+00
    endloop
  endfacet
  facet normal 4.983927e-01 6.658894e-01 -5.551540e-01
    outer loop
      vertex   5.104593e+00 3.681530e+00 8.928189e+00
      vertex   4.845141e+00 3.484320e+00 8.458718e+00
      vertex   5.054528e+00 3.718804e+00 8.927953e+00
    endloop
  endfacet
  facet normal 4.984050e-01 6.658797e-01 -5.551547e-01
    outer loop
      vertex   5.054528e+00 3.718804e+00 8.927953e+00
      vertex   4.845141e+00 3.484320e+00 8.458718e+00
      vertex   5.004464e+00 3.756080e+00 8.927717e+00
    endloop
  endfacet
  facet normal 4.984178e-01 6.658708e-01 -5.551538e-01
    outer loop
      vertex   5.004464e+00 3.756080e+00 8.927717e+00
      vertex   4.845141e+00 3.484320e+00 8.458718e+00
      vertex   4.954400e+00 3.793356e+00 8.927480e+00
    endloop
  endfacet
  facet normal 5.031025e-01 6.630056e-01 -5.543568e-01
    outer loop
      vertex   4.954400e+00 3.793356e+00 8.927480e+00
      vertex   4.845141e+00 3.484320e+00 8.458718e+00
      vertex   4.643542e+00 3.637297e+00 8.458718e+00
    endloop
  endfacet
  facet normal 5.031025e-01 6.630056e-01 -5.543568e-01
    outer loop
      vertex   4.954400e+00 3.793356e+00 8.927480e+00
      vertex   4.643542e+00 3.637297e+00 8.458718e+00
      vertex   4.441943e+00 3.790275e+00 8.458718e+00
    endloop
  endfacet
  facet normal 5.031025e-01 6.630056e-01 -5.543568e-01
    outer loop
      vertex   4.441943e+00 3.790275e+00 8.458718e+00
      vertex   4.240345e+00 3.943252e+00 8.458718e+00
      vertex   4.954400e+00 3.793356e+00 8.927480e+00
    endloop
  endfacet
  facet normal -2.098059e-15 -1.000000e+00 -5.096770e-10
    outer loop
      vertex   5.020519e+00 2.349754e+00 8.458718e+00
      vertex   5.020519e+00 2.349754e+00 1.037299e+01
      vertex   1.210519e+00 2.349754e+00 8.458718e+00
    endloop
  endfacet
  facet normal -7.356250e-10 -1.000000e+00 9.544392e-10
    outer loop
      vertex   1.210519e+00 2.349754e+00 8.458718e+00
      vertex   5.020519e+00 2.349754e+00 1.037299e+01
      vertex   4.786587e+00 2.349754e+00 1.121493e+01
    endloop
  endfacet
  facet normal -2.428679e-15 -1.000000e+00 4.120173e-16
    outer loop
      vertex   1.210519e+00 2.349754e+00 8.458718e+00
      vertex   4.786587e+00 2.349754e+00 1.121493e+01
      vertex   4.038321e+00 2.349754e+00 1.219340e+01
    endloop
  endfacet
  facet normal -2.357426e-15 -1.000000e+00 3.580663e-16
    outer loop
      vertex   4.038321e+00 2.349754e+00 1.219340e+01
      vertex   3.237274e+00 2.349754e+00 1.312071e+01
      vertex   1.210519e+00 2.349754e+00 8.458718e+00
    endloop
  endfacet
  facet normal -8.273778e-16 -1.000000e+00 -3.071077e-16
    outer loop
      vertex   1.210519e+00 2.349754e+00 8.458718e+00
      vertex   3.237274e+00 2.349754e+00 1.312071e+01
      vertex   2.385707e+00 2.349754e+00 1.396887e+01
    endloop
  endfacet
  facet normal 1.364647e-12 -1.000000e+00 -2.915314e-13
    outer loop
      vertex   1.210519e+00 2.349754e+00 8.458718e+00
      vertex   2.385707e+00 2.349754e+00 1.396887e+01
      vertex   1.210519e+00 2.349754e+00 1.466311e+01
    endloop
  endfacet
  facet normal 5.307000e-12 -1.000000e+00 6.381967e-12
    outer loop
      vertex   1.210519e+00 2.349754e+00 1.466311e+01
      vertex   2.385707e+00 2.349754e+00 1.396887e+01
      vertex   1.477798e+00 2.349754e+00 1.472434e+01
    endloop
  endfacet
  facet normal -4.657066e-01 8.849392e-01 -3.318268e-16
    outer loop
      vertex   1.210519e+00 2.349754e+00 1.466311e+01
      vertex   2.041055e+00 2.786831e+00 1.319917e+01
      vertex   1.210519e+00 2.349754e+00 8.458718e+00
    endloop
  endfacet
  facet normal -4.657066e-01 8.849392e-01 -2.201605e-16
    outer loop
      vertex   1.210519e+00 2.349754e+00 8.458718e+00
      vertex   2.041055e+00 2.786831e+00 1.319917e+01
      vertex   2.808845e+00 3.190887e+00 1.167106e+01
    endloop
  endfacet
  facet normal -4.657066e-01 8.849392e-01 -5.168547e-16
    outer loop
      vertex   1.210519e+00 2.349754e+00 8.458718e+00
      vertex   2.808845e+00 3.190887e+00 1.167106e+01
      vertex   3.547666e+00 3.579697e+00 1.006379e+01
    endloop
  endfacet
  facet normal -4.657066e-01 8.849392e-01 -5.053501e-16
    outer loop
      vertex   3.547666e+00 3.579697e+00 1.006379e+01
      vertex   4.238664e+00 3.943340e+00 8.458718e+00
      vertex   1.210519e+00 2.349754e+00 8.458718e+00
    endloop
  endfacet
  facet normal 5.510397e-01 7.424921e-01 3.808684e-01
    outer loop
      vertex   5.004464e+00 3.756080e+00 8.927717e+00
      vertex   4.954400e+00 3.793356e+00 8.927480e+00
      vertex   5.027129e+00 3.412376e+00 9.564965e+00
    endloop
  endfacet
  facet normal 5.330530e-01 7.516639e-01 3.884017e-01
    outer loop
      vertex   5.027129e+00 3.412376e+00 9.564965e+00
      vertex   4.954400e+00 3.793356e+00 8.927480e+00
      vertex   4.434857e+00 3.526070e+00 1.015779e+01
    endloop
  endfacet
  facet normal 5.275338e-01 7.590725e-01 3.814669e-01
    outer loop
      vertex   5.027129e+00 3.412376e+00 9.564965e+00
      vertex   4.434857e+00 3.526070e+00 1.015779e+01
      vertex   4.781190e+00 3.024008e+00 1.067788e+01
    endloop
  endfacet
  facet normal 5.133930e-01 7.623399e-01 3.940373e-01
    outer loop
      vertex   4.781190e+00 3.024008e+00 1.067788e+01
      vertex   4.434857e+00 3.526070e+00 1.015779e+01
      vertex   4.379522e+00 3.294508e+00 1.067788e+01
    endloop
  endfacet
  facet normal 5.166312e-01 7.671484e-01 3.802310e-01
    outer loop
      vertex   4.781190e+00 3.024008e+00 1.067788e+01
      vertex   4.379522e+00 3.294508e+00 1.067788e+01
      vertex   4.620887e+00 2.663827e+00 1.162239e+01
    endloop
  endfacet
  facet normal 4.941892e-01 7.760163e-01 3.918874e-01
    outer loop
      vertex   4.620887e+00 2.663827e+00 1.162239e+01
      vertex   4.379522e+00 3.294508e+00 1.067788e+01
      vertex   3.885362e+00 3.244381e+00 1.140030e+01
    endloop
  endfacet
  facet normal 4.894557e-01 7.738677e-01 4.019477e-01
    outer loop
      vertex   4.620887e+00 2.663827e+00 1.162239e+01
      vertex   3.885362e+00 3.244381e+00 1.140030e+01
      vertex   3.707238e+00 2.656171e+00 1.274969e+01
    endloop
  endfacet
  facet normal 4.600601e-01 7.900719e-01 4.051309e-01
    outer loop
      vertex   3.707238e+00 2.656171e+00 1.274969e+01
      vertex   3.885362e+00 3.244381e+00 1.140030e+01
      vertex   3.313372e+00 2.952257e+00 1.261954e+01
    endloop
  endfacet
  facet normal 4.543350e-01 7.874606e-01 4.165159e-01
    outer loop
      vertex   3.707238e+00 2.656171e+00 1.274969e+01
      vertex   3.313372e+00 2.952257e+00 1.261954e+01
      vertex   3.223177e+00 2.653258e+00 1.328321e+01
    endloop
  endfacet
  facet normal 4.472694e-01 7.911301e-01 4.172088e-01
    outer loop
      vertex   3.223177e+00 2.653258e+00 1.328321e+01
      vertex   3.313372e+00 2.952257e+00 1.261954e+01
      vertex   3.206753e+00 2.862670e+00 1.290372e+01
    endloop
  endfacet
  facet normal 4.242179e-01 8.004955e-01 4.233746e-01
    outer loop
      vertex   3.223177e+00 2.653258e+00 1.328321e+01
      vertex   3.206753e+00 2.862670e+00 1.290372e+01
      vertex   2.722150e+00 2.651342e+00 1.378885e+01
    endloop
  endfacet
  facet normal 3.713488e-01 8.364670e-01 4.030175e-01
    outer loop
      vertex   2.722150e+00 2.651342e+00 1.378885e+01
      vertex   3.206753e+00 2.862670e+00 1.290372e+01
      vertex   3.313372e+00 2.952257e+00 1.261954e+01
    endloop
  endfacet
  facet normal 5.007955e-01 7.696844e-01 3.959670e-01
    outer loop
      vertex   4.434857e+00 3.526070e+00 1.015779e+01
      vertex   3.885362e+00 3.244381e+00 1.140030e+01
      vertex   4.379522e+00 3.294508e+00 1.067788e+01
    endloop
  endfacet
  facet normal 5.142030e-01 7.686909e-01 3.804071e-01
    outer loop
      vertex   4.620887e+00 2.663827e+00 1.162239e+01
      vertex   4.711579e+00 2.793741e+00 1.123728e+01
      vertex   4.781190e+00 3.024008e+00 1.067788e+01
    endloop
  endfacet
  facet normal 5.162295e-01 7.674580e-01 3.801517e-01
    outer loop
      vertex   4.781190e+00 3.024008e+00 1.067788e+01
      vertex   4.711579e+00 2.793741e+00 1.123728e+01
      vertex   4.802554e+00 2.923931e+00 1.085091e+01
    endloop
  endfacet
  facet normal 5.168615e-01 7.671573e-01 3.798998e-01
    outer loop
      vertex   4.781190e+00 3.024008e+00 1.067788e+01
      vertex   4.802554e+00 2.923931e+00 1.085091e+01
      vertex   4.893614e+00 3.054131e+00 1.046410e+01
    endloop
  endfacet
  facet normal 5.162500e-01 7.676909e-01 3.796534e-01
    outer loop
      vertex   4.893614e+00 3.054131e+00 1.046410e+01
      vertex   4.984564e+00 3.184075e+00 1.007767e+01
      vertex   4.781190e+00 3.024008e+00 1.067788e+01
    endloop
  endfacet
  facet normal 5.291883e-01 7.579357e-01 3.814358e-01
    outer loop
      vertex   4.781190e+00 3.024008e+00 1.067788e+01
      vertex   4.984564e+00 3.184075e+00 1.007767e+01
      vertex   5.027129e+00 3.412376e+00 9.564965e+00
    endloop
  endfacet
  facet normal 5.395917e-01 7.515644e-01 3.794624e-01
    outer loop
      vertex   4.984564e+00 3.184075e+00 1.007767e+01
      vertex   5.075206e+00 3.313497e+00 9.692440e+00
      vertex   5.027129e+00 3.412376e+00 9.564965e+00
    endloop
  endfacet
  facet normal 5.399068e-01 7.514449e-01 3.792508e-01
    outer loop
      vertex   5.027129e+00 3.412376e+00 9.564965e+00
      vertex   5.075206e+00 3.313497e+00 9.692440e+00
      vertex   5.165347e+00 3.442131e+00 9.309242e+00
    endloop
  endfacet
  facet normal 5.427701e-01 7.487534e-01 3.804853e-01
    outer loop
      vertex   5.027129e+00 3.412376e+00 9.564965e+00
      vertex   5.165347e+00 3.442131e+00 9.309242e+00
      vertex   5.204724e+00 3.606982e+00 8.928660e+00
    endloop
  endfacet
  facet normal 5.514731e-01 7.431478e-01 3.789576e-01
    outer loop
      vertex   5.204724e+00 3.606982e+00 8.928660e+00
      vertex   5.165347e+00 3.442131e+00 9.309242e+00
      vertex   5.254790e+00 3.569709e+00 8.928894e+00
    endloop
  endfacet
  facet normal 5.510051e-01 7.425142e-01 3.808755e-01
    outer loop
      vertex   5.204724e+00 3.606982e+00 8.928660e+00
      vertex   5.154658e+00 3.644255e+00 8.928425e+00
      vertex   5.027129e+00 3.412376e+00 9.564965e+00
    endloop
  endfacet
  facet normal 5.510134e-01 7.425083e-01 3.808750e-01
    outer loop
      vertex   5.027129e+00 3.412376e+00 9.564965e+00
      vertex   5.154658e+00 3.644255e+00 8.928425e+00
      vertex   5.104593e+00 3.681530e+00 8.928189e+00
    endloop
  endfacet
  facet normal 5.510219e-01 7.425026e-01 3.808736e-01
    outer loop
      vertex   5.027129e+00 3.412376e+00 9.564965e+00
      vertex   5.104593e+00 3.681530e+00 8.928189e+00
      vertex   5.054528e+00 3.718804e+00 8.927953e+00
    endloop
  endfacet
  facet normal 5.510307e-01 7.424972e-01 3.808714e-01
    outer loop
      vertex   5.054528e+00 3.718804e+00 8.927953e+00
      vertex   5.004464e+00 3.756080e+00 8.927717e+00
      vertex   5.027129e+00 3.412376e+00 9.564965e+00
    endloop
  endfacet
  facet normal -1.563514e-08 -2.060453e-08 -1.000000e+00
    outer loop
      vertex   5.449938e+00 3.025388e+00 8.458718e+00
      vertex   5.456444e+00 2.972320e+00 8.458718e+00
      vertex   5.248339e+00 3.178365e+00 8.458718e+00
    endloop
  endfacet
  facet normal 3.745763e-09 -1.029869e-09 -1.000000e+00
    outer loop
      vertex   5.248339e+00 3.178365e+00 8.458718e+00
      vertex   5.456444e+00 2.972320e+00 8.458718e+00
      vertex   5.020519e+00 2.349754e+00 8.458718e+00
    endloop
  endfacet
  facet normal -7.290344e-15 2.004425e-15 -1.000000e+00
    outer loop
      vertex   5.248339e+00 3.178365e+00 8.458718e+00
      vertex   5.020519e+00 2.349754e+00 8.458718e+00
      vertex   5.046740e+00 3.331342e+00 8.458718e+00
    endloop
  endfacet
  facet normal 9.982217e-15 1.543018e-15 -1.000000e+00
    outer loop
      vertex   5.046740e+00 3.331342e+00 8.458718e+00
      vertex   5.020519e+00 2.349754e+00 8.458718e+00
      vertex   4.845141e+00 3.484320e+00 8.458718e+00
    endloop
  endfacet
  facet normal 1.996443e-14 3.086035e-15 -1.000000e+00
    outer loop
      vertex   4.845141e+00 3.484320e+00 8.458718e+00
      vertex   5.020519e+00 2.349754e+00 8.458718e+00
      vertex   4.643542e+00 3.637297e+00 8.458718e+00
    endloop
  endfacet
  facet normal -2.691873e-15 -3.547443e-15 -1.000000e+00
    outer loop
      vertex   4.643542e+00 3.637297e+00 8.458718e+00
      vertex   5.020519e+00 2.349754e+00 8.458718e+00
      vertex   4.441943e+00 3.790275e+00 8.458718e+00
    endloop
  endfacet
  facet normal -2.771621e-14 -1.359829e-14 -1.000000e+00
    outer loop
      vertex   4.441943e+00 3.790275e+00 8.458718e+00
      vertex   5.020519e+00 2.349754e+00 8.458718e+00
      vertex   4.238664e+00 3.943340e+00 8.458718e+00
    endloop
  endfacet
  facet normal -2.270621e-12 -2.992302e-12 -1.000000e+00
    outer loop
      vertex   4.441943e+00 3.790275e+00 8.458718e+00
      vertex   4.238664e+00 3.943340e+00 8.458718e+00
      vertex   4.240345e+00 3.943252e+00 8.458718e+00
    endloop
  endfacet
  facet normal 9.324708e-16 4.574944e-16 -1.000000e+00
    outer loop
      vertex   5.020519e+00 2.349754e+00 8.458718e+00
      vertex   1.210519e+00 2.349754e+00 8.458718e+00
      vertex   4.238664e+00 3.943340e+00 8.458718e+00
    endloop
  endfacet
  facet normal 8.191520e-01 -5.735764e-01 2.475778e-15
    outer loop
      vertex   5.456444e+00 2.972320e+00 8.458718e+00
      vertex   5.395028e+00 2.884609e+00 8.727922e+00
      vertex   5.020519e+00 2.349754e+00 8.458718e+00
    endloop
  endfacet
  facet normal 8.191520e-01 -5.735764e-01 -3.233106e-15
    outer loop
      vertex   5.020519e+00 2.349754e+00 8.458718e+00
      vertex   5.395028e+00 2.884609e+00 8.727922e+00
      vertex   5.333211e+00 2.796324e+00 8.999037e+00
    endloop
  endfacet
  facet normal 8.191520e-01 -5.735764e-01 -1.339356e-15
    outer loop
      vertex   5.020519e+00 2.349754e+00 8.458718e+00
      vertex   5.333211e+00 2.796324e+00 8.999037e+00
      vertex   5.271060e+00 2.707564e+00 9.271770e+00
    endloop
  endfacet
  facet normal 8.191520e-01 -5.735764e-01 1.433228e-15
    outer loop
      vertex   5.271060e+00 2.707564e+00 9.271770e+00
      vertex   5.208646e+00 2.618428e+00 9.545827e+00
      vertex   5.020519e+00 2.349754e+00 8.458718e+00
    endloop
  endfacet
  facet normal 8.191520e-01 -5.735764e-01 1.195862e-15
    outer loop
      vertex   5.020519e+00 2.349754e+00 8.458718e+00
      vertex   5.208646e+00 2.618428e+00 9.545827e+00
      vertex   5.146038e+00 2.529014e+00 9.820912e+00
    endloop
  endfacet
  facet normal 8.191520e-01 -5.735764e-01 1.740165e-16
    outer loop
      vertex   5.020519e+00 2.349754e+00 8.458718e+00
      vertex   5.146038e+00 2.529014e+00 9.820912e+00
      vertex   5.083306e+00 2.439423e+00 1.009673e+01
    endloop
  endfacet
  facet normal 8.191520e-01 -5.735764e-01 -3.518318e-16
    outer loop
      vertex   5.083306e+00 2.439423e+00 1.009673e+01
      vertex   5.020519e+00 2.349754e+00 1.037299e+01
      vertex   5.020519e+00 2.349754e+00 8.458718e+00
    endloop
  endfacet
endsolid
